<?xml version="1.0" standalone="no"?>
<!DOCTYPE svg PUBLIC "-//W3C//DTD SVG 20010904//EN"
 "http://www.w3.org/TR/2001/REC-SVG-20010904/DTD/svg10.dtd">
<svg version="1.0" xmlns="http://www.w3.org/2000/svg"
 width="626.000000pt" height="626.000000pt" viewBox="0 0 626.000000 626.000000"
 preserveAspectRatio="xMidYMid meet">
<metadata>
Created by potrace 1.16, written by Peter Selinger 2001-2019
</metadata>
<g transform="translate(0.000000,626.000000) scale(0.100000,-0.100000)"
fill="#000000" stroke="none">
<path d="M568 5886 c-95 -39 -162 -108 -198 -202 -20 -55 -20 -58 -18 -2567
l3 -2512 26 -55 c33 -70 99 -136 169 -169 l55 -26 2525 0 2525 0 55 26 c70 33
136 99 169 169 l26 55 0 2525 0 2525 -26 55 c-33 70 -99 136 -169 169 l-55 26
-2515 2 -2515 3 -57 -24z m2310 -2196 c3 -821 -4 -1100 -34 -1247 -17 -86 -55
-189 -92 -252 -42 -71 -138 -158 -217 -196 -120 -58 -180 -69 -360 -69 -148 0
-166 2 -245 28 -199 65 -327 190 -398 386 -31 84 -42 152 -42 255 l0 95 164 0
163 0 6 -77 c7 -90 37 -199 67 -247 25 -42 92 -104 125 -116 14 -5 54 -15 91
-21 77 -13 195 1 255 32 100 51 154 175 169 390 5 74 9 520 10 992 l0 857 168
-2 167 -3 3 -805z m1338 135 c255 -45 387 -125 462 -283 26 -54 36 -91 40
-143 l5 -69 -159 0 -159 0 -12 51 c-32 132 -157 199 -373 199 -149 0 -251 -30
-318 -94 -50 -46 -65 -83 -66 -153 0 -122 57 -160 354 -237 456 -117 559 -156
671 -254 131 -116 165 -377 74 -569 -49 -105 -153 -207 -267 -262 -138 -67
-216 -83 -413 -85 -228 -1 -363 25 -506 100 -80 42 -171 133 -212 212 -32 62
-67 183 -67 235 l0 37 163 -2 162 -3 6 -50 c13 -102 62 -173 151 -218 142 -72
404 -77 545 -11 65 31 139 111 154 167 16 61 6 159 -20 196 -39 54 -154 98
-486 186 -292 77 -425 130 -506 203 -96 86 -135 197 -126 357 9 166 78 281
235 389 56 39 194 90 283 105 89 14 289 12 385 -4z"/>
</g>
</svg>
